<svg width="450" height="256" viewBox="0 0 450 256" fill="none" xmlns="http://www.w3.org/2000/svg">
<path fill-rule="evenodd" clip-rule="evenodd" d="M390.485 123.225C371.169 136.26 355 154.499 340.36 172.376C333.54 180.708 326.806 189.635 325.026 199.602C335.767 200.63 346.461 193.527 353.771 187.094C372.242 170.854 385.486 147.745 390.485 123.225ZM313.92 121.343C289.923 131.096 267.694 145.904 249.056 164.988C243.186 170.993 236.393 178.904 234.214 188.092C244.033 188.88 254.003 183.371 260.874 178.97C278.006 167.999 293.451 153.312 305.53 136.496C308.7 132.083 312.048 126.954 313.92 121.343ZM245.278 107.814C215.513 120.559 189.323 143.085 172.172 171.802C205.244 157.533 229.948 129.615 245.278 107.814ZM145.143 113.245C125.03 124.787 107.258 139.492 95.3808 156.832C115.332 147.022 132.829 128.739 145.143 113.245ZM87.3696 165.826C86.8234 165.675 86.317 165.358 85.9357 164.902C85.1656 163.984 85.0457 162.678 85.6314 161.628C101.618 133.039 129.945 114.2 150.892 103.431C151.765 102.982 152.646 102.535 153.529 102.094C157.097 97.0837 159.833 92.8724 161.591 90.0626C166.114 82.8394 170.911 74.2124 172.192 64.9714C173.495 55.5955 170.576 46.629 164.75 42.1266C160.912 39.1639 155.66 37.7134 148.217 37.5724C105.556 36.756 43.4024 70.6966 7.14551 137.147C6.37977 138.547 4.63025 139.057 3.2367 138.3C1.84547 137.535 1.33644 135.78 2.10017 134.376C30.3786 82.5496 89.692 30.6696 148.343 31.7907C157.071 31.9566 163.408 33.7789 168.267 37.5398C175.699 43.284 179.477 54.3605 177.891 65.7532C176.46 76.0782 171.314 85.3861 166.462 93.1306C165.729 94.3028 164.83 95.7111 163.778 97.3144C186.345 87.4457 210.977 80.8907 233.158 78.9859C244.841 77.9869 252.395 80.8357 255.604 87.4362C257.059 90.425 257.41 93.7334 256.653 97.4139C268.581 93.5833 280.919 91.2469 293.363 90.6022C300.042 90.2561 307.64 90.5179 313.408 95.0582C318.237 98.8528 321.018 105.326 321.137 112.46C340.478 105.743 360.76 102.167 381.134 102.092C385.977 102.073 391.957 102.66 395.245 107.343C396.334 108.898 396.924 110.622 397.194 112.41C402.147 109.82 407.891 107.577 414.074 107.072C423.649 106.29 432.717 110.382 437.181 117.503C441.464 124.331 441.338 132.784 440.753 139.387C437.538 175.78 415.27 210.698 384.025 228.347C382.639 229.131 380.885 228.641 380.109 227.247C379.335 225.857 379.831 224.094 381.215 223.309C410.851 206.569 431.97 173.435 435.02 138.89C435.525 133.192 435.677 125.962 432.31 120.594C428.97 115.271 421.988 112.229 414.523 112.836C408.133 113.358 402.075 116.165 397.067 119.071C397 119.551 396.926 120.025 396.848 120.49C392.254 147.66 377.93 173.524 357.554 191.444C348.654 199.268 335.117 207.944 321.175 204.838C319.862 204.535 318.817 203.217 318.938 201.774C320.028 189.077 327.924 178.479 335.916 168.712C351.704 149.432 369.278 129.718 390.775 116.145C391.056 115.97 391.335 115.795 391.619 115.618C391.68 113.735 391.434 111.966 390.532 110.681C388.782 108.181 384.798 107.864 381.14 107.874C360.538 107.949 340.025 111.725 320.545 118.794C318.914 126.927 314.406 134.007 310.193 139.872C297.689 157.277 281.698 172.482 263.957 183.843C255.59 189.2 242.993 196.018 230.258 193.359C228.802 193.046 227.805 191.664 227.996 190.171C229.532 178.071 237.865 168.194 244.957 160.942C265.063 140.355 289.231 124.593 315.314 114.588C315.658 109.173 314.182 103.021 309.854 99.6168C305.565 96.2473 299.252 96.0883 293.645 96.3793C280.208 97.0738 266.9 99.8179 254.132 104.35C253.11 106.384 251.818 108.512 250.252 110.748C233.343 134.895 205.109 166.539 166.652 180.173C165.527 180.57 164.286 180.234 163.516 179.337C162.745 178.433 162.602 177.148 163.158 176.095C181.892 140.619 213.696 113.274 249.903 99.7571C251.504 95.8296 251.684 92.563 250.434 89.988C248.362 85.7361 242.715 83.9754 233.631 84.7498C209.909 86.7873 182.373 94.4459 157.215 106.825C143.38 125.99 118.405 155.322 89.0944 165.762C88.525 165.965 87.9242 165.979 87.3696 165.826Z" fill="#FE7B33"/>
</svg>
