<svg width="426" height="147" viewBox="0 0 426 147" fill="none" xmlns="http://www.w3.org/2000/svg">
<path fill-rule="evenodd" clip-rule="evenodd" d="M371.476 25.2387C356.327 42.946 345.597 64.8307 336.245 85.9603C331.889 95.8076 327.776 106.205 328.714 116.286C339.34 114.418 347.758 104.723 353.091 96.5771C366.571 76.0059 373.185 50.2043 371.476 25.2387ZM297.173 43.8081C276.639 59.5974 259.154 79.7897 246.27 103.147C242.21 110.498 237.769 119.931 238.114 129.368C247.788 127.514 255.932 119.549 261.384 113.477C274.976 98.3418 285.954 80.0732 293.12 60.6476C295.001 55.5503 296.862 49.7154 297.173 43.8081ZM227.407 49.0413C202.109 69.251 182.861 97.9368 173.975 130.184C202.054 107.625 218.434 74.1371 227.407 49.0413ZM132.331 80.9353C116.017 97.4161 102.802 116.321 95.9694 136.198C112.588 121.43 124.587 99.1489 132.331 80.9353ZM90.6417 147C90.075 147 89.5025 146.829 89.0134 146.491C88.0267 145.811 87.5636 144.584 87.8484 143.416C95.6472 111.603 117.936 85.9024 135.26 69.9453C135.982 69.2799 136.712 68.6145 137.446 67.955C139.552 62.175 141.068 57.3873 142.014 54.2109C144.451 46.0443 146.778 36.4515 145.553 27.203C144.313 17.8185 139.112 9.95274 132.297 7.16401C127.809 5.32992 122.36 5.32992 115.148 7.17558C73.8099 17.7462 22.9351 67.009 5.67762 140.714C5.31228 142.267 3.76172 143.225 2.21692 142.866C0.672122 142.499 -0.285827 140.942 0.07664 139.386C13.5368 81.9015 56.8977 16.103 113.73 1.56918C122.188 -0.594695 128.781 -0.525266 134.466 1.80639C143.159 5.36464 149.75 15.0355 151.254 26.4393C152.624 36.7726 150.141 47.1147 147.526 55.8714C147.132 57.1964 146.64 58.7932 146.053 60.6186C165.178 45.0983 187.176 32.2221 208.049 24.4808C219.044 20.4076 227.085 21.1424 231.935 26.6504C234.133 29.1441 235.352 32.2395 235.603 35.9887C246.08 29.121 257.351 23.584 269.174 19.6497C275.52 17.5379 282.913 15.7674 289.682 18.6082C295.346 20.9804 299.751 26.4798 301.764 33.3243C318.619 21.7007 337.217 12.8543 356.836 7.35783C361.5 6.05025 367.42 5.02328 371.836 8.66252C373.3 9.87174 374.327 11.376 375.063 13.0279C379.148 9.21216 384.088 5.52085 389.913 3.3888C398.934 0.0851315 408.764 1.61546 414.964 7.29129C420.91 12.7328 423.038 20.9139 424.232 27.4344C430.823 63.3698 418.654 102.956 393.236 128.286C392.108 129.411 390.287 129.406 389.168 128.269C388.052 127.135 388.06 125.303 389.185 124.178C413.295 100.153 424.831 62.5916 418.574 28.4816C417.544 22.855 415.766 15.8455 411.091 11.567C406.454 7.32601 398.914 6.25275 391.881 8.82452C385.86 11.0289 380.768 15.348 376.715 19.4819C376.778 19.9621 376.833 20.4394 376.881 20.9081C379.686 48.321 372.765 77.0646 357.895 99.7622C351.399 109.673 340.661 121.641 326.395 122.358C325.049 122.416 323.691 121.424 323.423 120.001C321.093 107.472 325.883 95.1538 330.986 83.6112C341.072 60.824 352.763 37.1429 369.871 18.3363C370.095 18.0933 370.317 17.8503 370.544 17.6044C370.101 15.7732 369.393 14.133 368.182 13.1349C365.829 11.1909 361.905 11.9459 358.381 12.9295C338.543 18.4867 319.776 27.5877 302.881 39.5874C303.473 47.861 301.014 55.8859 298.514 62.661C291.095 82.7665 279.729 101.68 265.653 117.354C259.013 124.745 248.686 134.671 235.703 135.498C234.216 135.585 232.887 134.517 232.674 133.027C230.934 120.955 236.336 109.216 241.241 100.338C255.141 75.1409 274.24 53.5137 296.719 36.9259C295.608 31.6146 292.547 26.0777 287.47 23.9485C282.439 21.8425 276.311 23.3699 270.983 25.1433C258.217 29.39 246.12 35.5779 235.019 43.3452C234.576 45.5785 233.897 47.9739 232.982 50.5456C223.112 78.3231 204.321 116.341 170.882 139.722C169.904 140.404 168.618 140.41 167.637 139.75C166.653 139.085 166.173 137.885 166.429 136.722C175.042 97.5376 198.418 62.7131 229.72 40.0445C230.217 35.8324 229.521 32.6358 227.631 30.4864C224.501 26.9397 218.59 26.7459 210.04 29.9107C187.717 38.1901 163.213 52.9033 142.259 71.5335C134.026 93.69 117.761 128.613 92.2871 146.479C91.7924 146.826 91.217 147 90.6417 147Z" fill="#FFF2E6"/>
</svg>
