<svg width="611" height="40" viewBox="0 0 611 40" fill="none" xmlns="http://www.w3.org/2000/svg">
<path fill-rule="evenodd" clip-rule="evenodd" d="M221.014 14.1651C286.006 9.47165 347.015 7.81175 405.892 7.47888C284.52 2.14413 162.269 3.83731 41.4428 12.5251C107.727 14.8952 162.563 14.9817 221.014 14.1651ZM30.6909 38.3689C30.1258 37.1839 31.3411 35.9656 33.4002 35.6394C78.6839 28.5205 121.858 23.1259 163.314 19.0693C114.295 19.056 64.0267 18.1928 3.56321 15.4277C1.59705 15.3368 0.0682396 14.4158 0.00244271 13.2885C-0.0672246 12.159 1.36095 11.1826 3.30777 11.0184C150.774 -1.36873 300.702 -3.31933 448.931 5.20651C450.959 5.32412 452.46 6.31606 452.418 7.46335C482.421 7.59427 511.987 7.96265 541.352 8.32658C562.93 8.59509 585.242 8.87248 607.184 9.04558C609.312 9.06111 611.015 10.0597 611 11.278C610.984 12.4985 609.258 13.4838 607.129 13.4838C477.591 13.4838 384.852 15.4056 310.335 16.9478C278.819 17.6025 249.825 18.2039 221.676 18.5966C163.248 22.8263 101.604 29.5169 35.4476 39.9223C35.1031 39.9734 34.7587 40 34.4219 40C32.7228 40 31.1631 39.3542 30.6909 38.3689Z" fill="#FFF2E6"/>
</svg>
